<?xml version="1.0" standalone="no"?>
<!DOCTYPE svg PUBLIC "-//W3C//DTD SVG 20010904//EN"
 "http://www.w3.org/TR/2001/REC-SVG-20010904/DTD/svg10.dtd">
<svg version="1.0" xmlns="http://www.w3.org/2000/svg"
 width="191.000000pt" height="66.000000pt" viewBox="0 0 191.000000 66.000000"
 preserveAspectRatio="xMidYMid meet">

<g transform="translate(0.000000,66.000000) scale(0.100000,-0.100000)"
fill="#000000" stroke="none">
<path d="M255 614 l-70 -13 86 6 c48 3 105 2 127 -2 l40 -7 -74 -70 c-41 -39
-72 -73 -69 -76 3 -3 39 27 79 67 91 91 93 112 7 110 -31 -1 -87 -8 -126 -15z"/>
<path d="M507 588 c4 -7 23 -36 43 -64 20 -28 44 -70 54 -93 11 -22 25 -41 33
-41 20 0 -19 72 -80 148 -47 57 -69 79 -50 50z"/>
<path d="M114 527 c-22 -37 -95 -209 -90 -214 2 -2 19 32 39 75 20 44 51 99
70 124 27 35 30 44 17 45 -9 1 -25 -13 -36 -30z"/>
<path d="M170 513 c0 -20 31 -146 40 -163 8 -12 9 -12 10 5 0 22 -49 178 -50
158z"/>
<path d="M425 431 c3 -5 36 -17 74 -25 38 -9 82 -21 97 -26 15 -6 29 -9 31 -6
5 5 -179 66 -198 66 -5 0 -8 -4 -4 -9z"/>
<path d="M870 325 c0 -73 1 -75 25 -75 37 0 72 19 84 48 23 50 -20 102 -84
102 -24 0 -25 -2 -25 -75z m82 38 c35 -32 10 -93 -39 -93 -21 0 -23 4 -23 55
0 50 2 55 22 55 12 0 30 -7 40 -17z"/>
<path d="M1010 325 l0 -75 40 0 c22 0 40 5 40 10 0 6 -16 10 -36 10 -31 0 -35
3 -32 23 2 16 11 23 33 26 l30 4 -30 6 c-21 4 -31 13 -33 29 -3 19 1 22 32 22
20 0 36 5 36 10 0 6 -18 10 -40 10 l-40 0 0 -75z"/>
<path d="M1122 323 c1 -75 1 -76 7 -23 l6 55 28 -52 c15 -29 30 -53 33 -53 3
0 16 24 29 53 l25 52 0 -47 c0 -26 5 -50 10 -53 6 -4 10 22 10 69 0 42 -4 76
-8 76 -4 0 -22 -28 -39 -62 l-31 -63 -27 57 c-14 32 -31 60 -36 63 -5 4 -8
-26 -7 -72z"/>
<path d="M1332 393 c-21 -8 -43 -61 -36 -88 8 -30 40 -55 72 -55 31 0 72 43
72 75 0 49 -60 87 -108 68z m76 -25 c16 -16 15 -73 0 -85 -27 -21 -47 -21 -72
-2 -30 23 -33 54 -9 81 18 20 63 24 81 6z"/>
<path d="M1533 325 c0 -44 2 -61 4 -37 2 23 2 59 0 80 -2 20 -4 1 -4 -43z"/>
<path d="M1570 327 c0 -50 4 -76 10 -72 6 3 10 29 10 57 l0 50 44 -56 c23 -30
46 -53 50 -49 10 10 7 133 -4 133 -5 0 -10 -24 -10 -52 l0 -53 -28 35 c-15 19
-37 46 -49 60 l-22 25 -1 -78z"/>
<path d="M1735 375 c-14 -13 -25 -36 -25 -50 0 -31 41 -75 69 -75 26 0 51 10
51 21 0 5 -10 5 -22 0 -49 -18 -87 21 -74 75 7 25 42 40 76 31 24 -6 27 8 4
17 -30 12 -55 6 -79 -19z"/>
<path d="M318 369 c-18 -10 -24 -45 -10 -65 14 -21 45 -25 63 -8 23 21 24 47
3 68 -18 18 -32 20 -56 5z"/>
<path d="M619 258 c-19 -40 -49 -92 -67 -116 -18 -24 -31 -47 -28 -50 3 -3 6
0 6 6 0 6 6 9 13 6 8 -3 23 14 39 43 30 54 80 175 75 180 -2 1 -19 -30 -38
-69z"/>
<path d="M470 304 c0 -23 49 -175 49 -154 1 20 -36 160 -43 168 -3 3 -6 -3 -6
-14z"/>
<path d="M60 286 c0 -5 186 -66 204 -66 6 0 6 4 0 10 -6 6 -46 19 -90 30 -43
10 -87 22 -96 25 -10 4 -18 5 -18 1z"/>
<path d="M61 228 c19 -39 117 -168 126 -168 5 0 -3 13 -47 76 -20 28 -44 70
-54 93 -11 22 -25 41 -33 41 -10 0 -8 -10 8 -42z"/>
<path d="M1850 260 c0 -5 5 -10 10 -10 6 0 10 5 10 10 0 6 -4 10 -10 10 -5 0
-10 -4 -10 -10z"/>
<path d="M317 142 c-63 -63 -74 -80 -66 -94 12 -22 62 -23 169 -3 l75 14 -77
-6 c-43 -3 -98 -2 -123 1 l-45 7 77 74 c43 40 76 76 72 79 -3 3 -39 -29 -82
-72z"/>
<path d="M205 50 c-16 -7 -17 -9 -3 -9 9 -1 20 4 23 9 7 11 7 11 -20 0z"/>
</g>
</svg>
